HIERARCHY
ROOT Hips
{
	OFFSET 0.00000 0.00000 0.00000
	CHANNELS 6 Xposition Yposition Zposition Zrotation Yrotation Xrotation 
	JOINT LHipJoint
	{
		OFFSET 0 0 0
		CHANNELS 3 Zrotation Yrotation Xrotation
		JOINT LeftUpLeg
		{
			OFFSET 1.41496 -1.84582 0.78394
			CHANNELS 3 Zrotation Yrotation Xrotation
			JOINT LeftLeg
			{
				OFFSET 2.58040 -7.08960 0.00000
				CHANNELS 3 Zrotation Yrotation Xrotation
				JOINT LeftFoot
				{
					OFFSET 2.64719 -7.27309 0.00000
					CHANNELS 3 Zrotation Yrotation Xrotation
					JOINT LeftToeBase
					{
						OFFSET 0.20718 -0.56921 2.20259
						CHANNELS 3 Zrotation Yrotation Xrotation
						End Site
						{
							OFFSET 0.00000 -0.00000 1.14243
						}
					}
				}
			}
		}
	}
	JOINT RHipJoint
	{
		OFFSET 0 0 0
		CHANNELS 3 Zrotation Yrotation Xrotation
		JOINT RightUpLeg
		{
			OFFSET -1.40551 -1.84582 0.78394
			CHANNELS 3 Zrotation Yrotation Xrotation
			JOINT RightLeg
			{
				OFFSET -2.56572 -7.04926 0.00000
				CHANNELS 3 Zrotation Yrotation Xrotation
				JOINT RightFoot
				{
					OFFSET -2.57974 -7.08778 0.00000
					CHANNELS 3 Zrotation Yrotation Xrotation
					JOINT RightToeBase
					{
						OFFSET -0.26704 -0.73369 2.20815
						CHANNELS 3 Zrotation Yrotation Xrotation
						End Site
						{
							OFFSET -0.00000 -0.00000 1.16246
						}
					}
				}
			}
		}
	}
	JOINT LowerBack
	{
		OFFSET 0 0 0
		CHANNELS 3 Zrotation Yrotation Xrotation
		JOINT Spine
		{
			OFFSET -0.04690 2.05196 -0.07017
			CHANNELS 3 Zrotation Yrotation Xrotation
			JOINT Spine1
			{
				OFFSET 0.04085 2.05260 0.00800
				CHANNELS 3 Zrotation Yrotation Xrotation
				JOINT Neck
				{
					OFFSET 0 0 0
					CHANNELS 3 Zrotation Yrotation Xrotation
					JOINT Neck1
					{
						OFFSET -0.03582 1.80995 0.19301
						CHANNELS 3 Zrotation Yrotation Xrotation
						JOINT Head
						{
							OFFSET 0.00952 1.80195 -0.36389
							CHANNELS 3 Zrotation Yrotation Xrotation
							End Site
							{
								OFFSET 0.00392 1.85062 -0.14494
							}
						}
					}
				}
				JOINT LeftShoulder
				{
					OFFSET 0 0 0
					CHANNELS 3 Zrotation Yrotation Xrotation
					JOINT LeftArm
					{
						OFFSET 3.55224 1.39726 -0.13667
						CHANNELS 3 Zrotation Yrotation Xrotation
						JOINT LeftForeArm
						{
							OFFSET 5.14507 -0.00000 -0.00000
							CHANNELS 3 Zrotation Yrotation Xrotation
							JOINT LeftHand
							{
								OFFSET 3.50646 -0.00000 0.00000
								CHANNELS 3 Zrotation Yrotation Xrotation
								JOINT LeftFingerBase
								{
									OFFSET 0 0 0
									CHANNELS 3 Zrotation Yrotation Xrotation
									JOINT LeftHandIndex1
									{
										OFFSET 0.62997 -0.00000 0.00000
										CHANNELS 3 Zrotation Yrotation Xrotation
										End Site
										{
											OFFSET 0.50790 -0.00000 0.00000
										}
									}
								}
								JOINT LThumb
								{
									OFFSET 0 0 0
									CHANNELS 3 Zrotation Yrotation Xrotation
									End Site
									{
										OFFSET 0.51565 -0.00000 0.51565
									}
								}
							}
						}
					}
				}
				JOINT RightShoulder
				{
					OFFSET 0 0 0
					CHANNELS 3 Zrotation Yrotation Xrotation
					JOINT RightArm
					{
						OFFSET -3.06467 1.61290 -0.28813
						CHANNELS 3 Zrotation Yrotation Xrotation
						JOINT RightForeArm
						{
							OFFSET -5.23200 -0.00000 -0.00000
							CHANNELS 3 Zrotation Yrotation Xrotation
							JOINT RightHand
							{
								OFFSET -3.65641 -0.00000 0.00000
								CHANNELS 3 Zrotation Yrotation Xrotation
								JOINT RightFingerBase
								{
									OFFSET 0 0 0
									CHANNELS 3 Zrotation Yrotation Xrotation
									JOINT RightHandIndex1
									{
										OFFSET -0.65681 -0.00000 0.00000
										CHANNELS 3 Zrotation Yrotation Xrotation
										End Site
										{
											OFFSET -0.52953 -0.00000 0.00000
										}
									}
								}
								JOINT RThumb
								{
									OFFSET 0 0 0
									CHANNELS 3 Zrotation Yrotation Xrotation
									End Site
									{
										OFFSET -0.53762 -0.00000 0.53762
									}
								}
							}
						}
					}
				}
			}
		}
	}
}
MOTION
Frames: 7
Frame Time: 0.0425532
0.00 0.00 0.00 -174.8280 -5.8120 -166.1420 0.0000 0.0000 0.0000 -5.0505 -17.0788 -63.0861 13.3035 18.8890 70.0654 -0.0528 -14.9154 -9.8733 0.3038 -3.5436 -9.7961 0.0000 0.0000 0.0000 30.6671 -2.9441 -10.1944 -4.3703 -12.6375 38.0264 -0.3442 -1.0422 -11.5094 -4.2404 12.4736 -37.4285 4.8838 2.0851 14.3122 3.1595 3.4107 1.3964 -0.0542 1.4245 -6.4443 -3.6529 -4.1923 -16.2011 2.0373 -5.1413 4.8215 0.7877 -2.5348 4.1793 0.0000 0.0000 0.0000 -75.6665 33.3230 52.6126 102.3835 -59.4126 -70.7032 -0.0000 0.0000 -10.7176 24.3452 -16.6768 -7.3982 -7.1250 0.0000 -0.0000 -2.3056 11.7896 1.7874 0.0000 0.0000 0.0000 82.7708 -16.3852 42.8113 -112.6211 57.9753 -79.4573 0.0000 -0.0000 -1.3675 -28.1984 10.1570 -5.4012 7.1250 -0.0000 -0.0000 -0.8302 -18.4899 -0.5241
0.00 0.00 0.00 -173.2680 -5.4678 -167.8360 0.0000 0.0000 0.0000 -7.3812 -16.2467 -50.0130 7.8815 16.0314 52.1346 -0.3767 -13.1626 -3.2089 0.2803 -3.4052 -9.4089 0.0000 0.0000 0.0000 31.1344 -1.2265 -9.0238 -7.1689 -15.4725 49.5102 0.0085 -3.0229 1.6064 -2.8363 10.4252 -30.3650 5.6001 1.6289 12.1853 2.9259 2.8066 1.1022 -0.5302 1.1543 -5.5464 -3.7638 -4.0514 -17.5810 3.2485 -4.9925 7.4138 1.1483 -2.3413 5.2419 0.0000 0.0000 0.0000 -80.4989 31.6751 48.5978 103.5938 -59.2901 -71.7445 -0.0000 0.0000 -11.7656 24.7542 -16.3540 -7.3974 -7.1250 0.0000 -0.0000 -2.0077 12.0806 1.5440 0.0000 0.0000 0.0000 83.9346 -20.7680 41.5043 -98.7403 59.7094 -67.5619 0.0000 -0.0000 -3.1198 -27.2247 7.4939 -3.8387 7.1250 -0.0000 -0.0000 -0.2997 -21.5649 -0.1686
0.00 0.00 0.00 -175.1010 -4.9803 -169.1140 0.0000 0.0000 0.0000 -12.0065 -14.9250 -40.9564 7.4787 15.7221 50.6624 -0.4848 -14.3937 -2.8312 0.0073 -0.5533 -1.5203 0.0000 0.0000 0.0000 27.7915 -2.3868 -16.1667 -11.5203 -18.1804 64.4600 0.0529 -5.0056 -4.9164 -2.6952 10.1845 -29.5764 3.2960 0.8957 12.3310 2.2215 1.5780 0.9911 0.2153 0.6309 -5.8477 -3.0733 -3.3494 -17.4482 3.3209 -4.2271 7.7785 1.1366 -1.9378 5.2978 0.0000 0.0000 0.0000 -82.5396 27.1509 48.8800 107.8468 -58.7616 -75.3915 -0.0000 0.0000 -11.3470 25.4634 -15.9601 -7.4597 -7.1250 0.0000 -0.0000 -1.5025 12.4081 1.1450 0.0000 0.0000 0.0000 84.1730 -23.8449 38.7251 -85.3105 59.9167 -55.9399 0.0000 -0.0000 -1.3849 -25.3676 5.9922 -2.8337 7.1250 -0.0000 -0.0000 1.0010 -23.3538 0.5223
0.00 0.00 0.00 -180.4660 -4.0812 -169.5110 0.0000 0.0000 0.0000 -21.0182 -11.0920 -28.0459 6.9057 15.2520 48.5168 0.1860 -16.5673 -13.4261 0.0765 1.7845 4.9104 0.0000 0.0000 0.0000 19.3865 -2.4500 -31.4196 -17.5130 -19.8511 82.7110 -0.1652 -7.3613 -13.5875 -1.9692 8.8017 -25.1770 -2.0640 -0.4157 12.3850 0.3435 -0.8913 -0.0232 1.6940 -0.3852 -6.9477 -1.9431 -2.1444 -16.7594 3.5634 -2.9252 8.4106 1.1623 -1.2473 5.3345 0.0000 0.0000 0.0000 -84.5491 17.5697 50.1527 115.5245 -57.3892 -81.9111 -0.0000 0.0000 -10.2746 27.1945 -15.3825 -7.7613 -7.1250 0.0000 -0.0000 -0.2943 12.7926 0.2218 0.0000 0.0000 0.0000 82.9417 -29.1101 33.8442 -64.2213 57.3337 -37.8748 0.0000 -0.0000 -1.7102 -25.2280 2.2153 -1.0434 7.1250 -0.0000 -0.0000 1.0452 -27.5307 0.4438
0.00 0.00 0.00 -187.3400 -4.4759 -167.7020 0.0000 0.0000 0.0000 -27.8991 -2.8450 -8.5646 5.0220 13.4085 40.9177 -0.9446 -24.9425 -10.5519 0.0427 1.3339 3.6679 0.0000 0.0000 0.0000 9.8769 4.6100 -52.6015 -14.2106 -19.1767 72.8467 -0.5993 -3.3192 -16.2063 -2.2501 9.3686 -26.9554 -7.8924 -2.9990 9.9832 -0.9744 -5.1554 -1.8129 4.1858 -2.2559 -6.9399 -1.2087 -0.5512 -19.7071 2.7359 -0.8325 11.2910 0.9923 -0.1959 6.6663 0.0000 0.0000 0.0000 -88.9965 2.1161 50.8615 131.7024 -52.2854 -95.1791 -0.0000 0.0000 -9.7202 30.6511 -16.1042 -9.3348 -7.1250 0.0000 -0.0000 1.9246 11.4359 -1.5056 0.0000 0.0000 0.0000 77.1117 -43.5704 27.9268 -62.8611 57.0254 -36.7317 0.0000 -0.0000 -2.6121 -25.6394 5.1708 -2.4769 7.1250 -0.0000 -0.0000 0.7772 -24.2478 0.3895
0.00 0.00 0.00 -188.2540 -4.4814 -168.1740 0.0000 0.0000 0.0000 -27.8545 -1.8065 0.1497 4.1416 12.3465 36.9689 -1.8337 -24.9553 -0.6503 0.0239 -0.9971 -2.7408 0.0000 0.0000 0.0000 9.3809 6.2800 -51.2801 -8.8907 -16.7369 55.7115 -0.2284 -2.0988 -10.0506 -2.6525 10.1101 -29.3339 -7.9445 -4.1284 8.2582 -0.9663 -6.5056 -1.8886 4.2363 -2.9741 -5.8621 -0.4853 0.4254 -19.9991 1.2254 0.5070 12.1181 0.5383 0.3378 6.9599 -0.0000 -0.0000 0.0000 -88.3969 1.0890 51.5591 137.1345 -49.6789 -99.4019 -0.0000 0.0000 -11.2423 31.6902 -16.0993 -9.7149 -7.1250 0.0000 -0.0000 2.6089 11.2581 -2.0515 -0.0000 -0.0000 0.0000 73.6537 -48.7129 30.4339 -71.3913 58.6503 -43.9574 0.0000 -0.0000 -5.1843 -24.7726 6.3193 -2.9078 7.1250 -0.0000 -0.0000 1.4492 -23.0266 0.7671
0.00 0.00 0.00 -189.3570 -4.4453 -168.6130 0.0000 0.0000 0.0000 -28.6914 -3.1968 8.1204 3.7036 11.7552 34.8715 -1.9051 -23.5436 8.7608 0.3249 -3.6639 -10.1329 0.0000 0.0000 0.0000 9.2918 6.5693 -47.0747 -4.3296 -12.5866 37.8400 0.0630 -5.3055 1.1496 -2.5917 10.0027 -28.9856 -7.9597 -4.9521 5.4107 -1.0753 -7.3543 -2.0234 3.9154 -3.4806 -4.2981 -0.2496 0.9158 -19.9604 -0.2612 1.3654 13.8127 0.1190 0.6135 7.5166 -0.0000 -0.0000 0.0000 -85.9055 1.8082 53.7536 140.6780 -47.6630 -102.0636 -0.0000 0.0000 -13.0226 31.3652 -16.2817 -9.6981 -7.1250 0.0000 -0.0000 2.3723 11.1085 -1.8724 -0.0000 -0.0000 0.0000 70.2335 -54.0260 33.7071 -82.6182 59.7931 -53.6116 0.0000 -0.0000 -6.3580 -24.1883 7.4653 -3.3399 7.1250 -0.0000 -0.0000 1.9084 -21.8070 1.0635
